<?xml version="1.0" encoding="UTF-8" standalone="no"?>
<!DOCTYPE svg PUBLIC "-//W3C//DTD SVG 1.1//EN"
 "http://www.w3.org/Graphics/SVG/1.1/DTD/svg11.dtd">
<!-- Generated by graphviz version 5.0.0 (20220707.1540)
 -->
<!-- Title: dependencies Pages: 1 -->
<svg width="690pt" height="174pt"
 viewBox="0.00 0.00 690.00 173.80" xmlns="http://www.w3.org/2000/svg" xmlns:xlink="http://www.w3.org/1999/xlink">
<g id="graph0" class="graph" transform="scale(1 1) rotate(0) translate(4 169.8)">
<title>dependencies</title>
<polygon fill="white" stroke="transparent" points="-4,4 -4,-169.8 686,-169.8 686,4 -4,4"/>
<text text-anchor="middle" x="341" y="-8.2" font-family="sans-serif" font-size="14.00">dependencies</text>
<g id="clust1" class="cluster">
<title>cluster_AdminLayoutModule</title>
<polygon fill="none" stroke="black" stroke-dasharray="1,5" points="8,-32.8 8,-157.8 674,-157.8 674,-32.8 8,-32.8"/>
</g>
<g id="clust2" class="cluster">
<title>cluster_AdminLayoutModule_declarations</title>
<polygon fill="none" stroke="black" points="192,-40.8 192,-92.8 666,-92.8 666,-40.8 192,-40.8"/>
</g>
<g id="clust6" class="cluster">
<title>cluster_AdminLayoutModule_imports</title>
<polygon fill="none" stroke="black" points="16,-40.8 16,-92.8 184,-92.8 184,-40.8 16,-40.8"/>
</g>
<!-- DashboardComponent -->
<g id="node1" class="node">
<title>DashboardComponent</title>
<polygon fill="#ffffb3" stroke="black" points="657.98,-84.8 516.02,-84.8 516.02,-48.8 657.98,-48.8 657.98,-84.8"/>
<text text-anchor="middle" x="587" y="-62.6" font-family="Times,serif" font-size="14.00">DashboardComponent</text>
</g>
<!-- AdminLayoutModule -->
<g id="node4" class="node">
<title>AdminLayoutModule</title>
<polygon fill="#8dd3c7" stroke="black" points="421.1,-149.8 418.1,-153.8 397.1,-153.8 394.1,-149.8 282.9,-149.8 282.9,-113.8 421.1,-113.8 421.1,-149.8"/>
<text text-anchor="middle" x="352" y="-127.6" font-family="Times,serif" font-size="14.00">AdminLayoutModule</text>
</g>
<!-- DashboardComponent&#45;&gt;AdminLayoutModule -->
<g id="edge1" class="edge">
<title>DashboardComponent&#45;&gt;AdminLayoutModule</title>
<path fill="none" stroke="black" d="M587,-84.91C587,-104.14 587,-131.8 587,-131.8 587,-131.8 431.24,-131.8 431.24,-131.8"/>
<polygon fill="black" stroke="black" points="431.24,-128.3 421.24,-131.8 431.24,-135.3 431.24,-128.3"/>
</g>
<!-- TableListComponent -->
<g id="node2" class="node">
<title>TableListComponent</title>
<polygon fill="#ffffb3" stroke="black" points="498.48,-84.8 363.52,-84.8 363.52,-48.8 498.48,-48.8 498.48,-84.8"/>
<text text-anchor="middle" x="431" y="-62.6" font-family="Times,serif" font-size="14.00">TableListComponent</text>
</g>
<!-- TableListComponent&#45;&gt;AdminLayoutModule -->
<g id="edge2" class="edge">
<title>TableListComponent&#45;&gt;AdminLayoutModule</title>
<path fill="none" stroke="black" d="M392.28,-84.91C392.28,-84.91 392.28,-103.79 392.28,-103.79"/>
<polygon fill="black" stroke="black" points="388.78,-103.79 392.28,-113.79 395.78,-103.79 388.78,-103.79"/>
</g>
<!-- UserProfileComponent -->
<g id="node3" class="node">
<title>UserProfileComponent</title>
<polygon fill="#ffffb3" stroke="black" points="345.87,-84.8 200.13,-84.8 200.13,-48.8 345.87,-48.8 345.87,-84.8"/>
<text text-anchor="middle" x="273" y="-62.6" font-family="Times,serif" font-size="14.00">UserProfileComponent</text>
</g>
<!-- UserProfileComponent&#45;&gt;AdminLayoutModule -->
<g id="edge3" class="edge">
<title>UserProfileComponent&#45;&gt;AdminLayoutModule</title>
<path fill="none" stroke="black" d="M314.44,-84.91C314.44,-84.91 314.44,-103.79 314.44,-103.79"/>
<polygon fill="black" stroke="black" points="310.94,-103.79 314.44,-113.79 317.94,-103.79 310.94,-103.79"/>
</g>
<!-- AngularMaterialModule -->
<g id="node5" class="node">
<title>AngularMaterialModule</title>
<polygon fill="#8dd3c7" stroke="black" points="176.35,-84.8 173.35,-88.8 152.35,-88.8 149.35,-84.8 23.65,-84.8 23.65,-48.8 176.35,-48.8 176.35,-84.8"/>
<text text-anchor="middle" x="100" y="-62.6" font-family="Times,serif" font-size="14.00">AngularMaterialModule</text>
</g>
<!-- AngularMaterialModule&#45;&gt;AdminLayoutModule -->
<g id="edge4" class="edge">
<title>AngularMaterialModule&#45;&gt;AdminLayoutModule</title>
<path fill="none" stroke="black" d="M100,-84.91C100,-104.14 100,-131.8 100,-131.8 100,-131.8 272.81,-131.8 272.81,-131.8"/>
<polygon fill="black" stroke="black" points="272.81,-135.3 282.81,-131.8 272.81,-128.3 272.81,-135.3"/>
</g>
</g>
</svg>
